<svg aria-hidden="true" style="position: absolute; width: 0; height: 0; overflow: hidden;" version="1.1" xmlns="http://www.w3.org/2000/svg" xmlns:xlink="http://www.w3.org/1999/xlink">
<defs>
<symbol id="icon-rating" viewBox="0 0 188 32">
<path fill="#ffd751" style="fill: var(--color1, #ffd751)" d="M33.942 12.225c-0.316-0.966-1.154-1.67-2.164-1.816l-8.525-1.233-3.813-7.688c-0.451-0.911-1.383-1.487-2.404-1.487s-1.952 0.577-2.404 1.487l-3.812 7.687-8.526 1.233c-1.010 0.146-1.849 0.85-2.164 1.816s-0.052 2.026 0.679 2.735l6.169 5.984-1.457 8.45c-0.172 1.001 0.241 2.013 1.066 2.609 0.467 0.338 1.020 0.509 1.576 0.509 0.427 0 0.855-0.101 1.247-0.307l7.625-3.99 7.626 3.99c0.903 0.472 1.997 0.394 2.823-0.203s1.239-1.608 1.066-2.609l-1.456-8.45 6.169-5.984c0.731-0.709 0.994-1.769 0.679-2.735z"></path>
<path fill="#f4c82a" style="fill: var(--color2, #f4c82a)" d="M33.943 12.223c-0.315-0.966-1.154-1.67-2.164-1.815l-8.525-1.233-3.813-7.688c-0.452-0.911-1.384-1.487-2.404-1.487v28.214l7.626 3.99c0.903 0.472 1.997 0.394 2.823-0.203s1.239-1.608 1.066-2.609l-1.456-8.45 6.169-5.984c0.73-0.708 0.993-1.769 0.678-2.734z"></path>
<path fill="#ffd751" style="fill: var(--color1, #ffd751)" d="M72.343 12.225c-0.316-0.966-1.154-1.67-2.164-1.816l-8.525-1.233-3.813-7.688c-0.451-0.911-1.383-1.487-2.404-1.487s-1.952 0.577-2.404 1.487l-3.812 7.687-8.526 1.233c-1.010 0.146-1.849 0.85-2.164 1.816s-0.052 2.026 0.679 2.735l6.169 5.984-1.457 8.45c-0.173 1.001 0.241 2.013 1.066 2.609 0.467 0.338 1.020 0.509 1.576 0.509 0.427 0 0.855-0.101 1.247-0.307l7.625-3.99 7.626 3.99c0.903 0.472 1.997 0.394 2.823-0.203s1.239-1.608 1.066-2.609l-1.456-8.45 6.168-5.984c0.731-0.709 0.994-1.769 0.679-2.735z"></path>
<path fill="#f4c82a" style="fill: var(--color2, #f4c82a)" d="M72.343 12.223c-0.316-0.966-1.154-1.67-2.164-1.815l-8.525-1.233-3.813-7.688c-0.452-0.911-1.383-1.487-2.404-1.487v28.214l7.626 3.99c0.903 0.472 1.997 0.394 2.823-0.203s1.239-1.608 1.066-2.609l-1.456-8.45 6.168-5.984c0.73-0.708 0.993-1.769 0.678-2.734z"></path>
<path fill="#ffd751" style="fill: var(--color1, #ffd751)" d="M110.743 12.225c-0.316-0.966-1.154-1.67-2.164-1.816l-8.525-1.233-3.813-7.688c-0.451-0.911-1.383-1.487-2.404-1.487s-1.952 0.577-2.404 1.487l-3.812 7.687-8.526 1.233c-1.010 0.146-1.849 0.85-2.164 1.816s-0.052 2.026 0.678 2.735l6.169 5.984-1.457 8.45c-0.172 1.001 0.241 2.013 1.066 2.609 0.467 0.338 1.020 0.509 1.576 0.509 0.427 0 0.855-0.101 1.247-0.307l7.625-3.99 7.626 3.99c0.903 0.472 1.997 0.394 2.823-0.203s1.239-1.608 1.066-2.609l-1.456-8.45 6.169-5.984c0.731-0.709 0.994-1.769 0.679-2.735z"></path>
<path fill="#f4c82a" style="fill: var(--color2, #f4c82a)" d="M110.744 12.223c-0.315-0.966-1.154-1.67-2.164-1.815l-8.525-1.233-3.812-7.688c-0.452-0.911-1.384-1.487-2.404-1.487v28.214l7.626 3.99c0.903 0.472 1.997 0.394 2.823-0.203s1.239-1.608 1.066-2.609l-1.456-8.45 6.169-5.984c0.73-0.708 0.993-1.769 0.678-2.734z"></path>
<path fill="#ffd751" style="fill: var(--color1, #ffd751)" d="M149.144 12.225c-0.316-0.966-1.154-1.67-2.164-1.816l-8.525-1.233-3.813-7.688c-0.451-0.911-1.383-1.487-2.404-1.487s-1.952 0.577-2.404 1.487l-3.812 7.687-8.526 1.233c-1.010 0.146-1.849 0.85-2.164 1.816s-0.052 2.026 0.679 2.735l6.169 5.984-1.457 8.45c-0.173 1.001 0.241 2.013 1.066 2.609 0.467 0.338 1.020 0.509 1.576 0.509 0.427 0 0.855-0.101 1.247-0.307l7.625-3.99 7.626 3.99c0.903 0.472 1.997 0.394 2.823-0.203s1.239-1.608 1.066-2.609l-1.456-8.45 6.168-5.984c0.731-0.709 0.994-1.769 0.679-2.735z"></path>
<path fill="#f4c82a" style="fill: var(--color2, #f4c82a)" d="M149.144 12.223c-0.316-0.966-1.154-1.67-2.164-1.815l-8.525-1.233-3.813-7.688c-0.452-0.911-1.383-1.487-2.404-1.487v28.214l7.626 3.99c0.903 0.472 1.997 0.394 2.823-0.203s1.239-1.608 1.066-2.609l-1.456-8.45 6.168-5.984c0.73-0.708 0.993-1.769 0.678-2.734z"></path>
<path fill="#ffd751" style="fill: var(--color1, #ffd751)" d="M187.545 12.225c-0.316-0.966-1.154-1.67-2.164-1.816l-8.525-1.233-3.813-7.688c-0.451-0.911-1.383-1.487-2.404-1.487s-1.952 0.577-2.404 1.487l-3.812 7.687-8.526 1.233c-1.010 0.146-1.849 0.85-2.164 1.816s-0.052 2.026 0.679 2.735l6.169 5.984-1.457 8.45c-0.172 1.001 0.241 2.013 1.066 2.609 0.467 0.338 1.020 0.509 1.576 0.509 0.427 0 0.855-0.101 1.247-0.307l7.625-3.99 7.626 3.99c0.903 0.472 1.997 0.394 2.823-0.203s1.239-1.608 1.066-2.609l-1.456-8.45 6.169-5.984c0.731-0.709 0.994-1.769 0.679-2.735z"></path>
<path fill="#f4c82a" style="fill: var(--color2, #f4c82a)" d="M187.545 12.223c-0.315-0.966-1.154-1.67-2.164-1.815l-8.525-1.233-3.812-7.688c-0.452-0.911-1.384-1.487-2.404-1.487v28.214l7.626 3.99c0.903 0.472 1.997 0.394 2.823-0.203s1.239-1.608 1.066-2.609l-1.456-8.45 6.169-5.984c0.73-0.708 0.993-1.769 0.678-2.734z"></path>
</symbol>
<symbol id="icon-rocket" viewBox="0 0 32 32">
<path fill="#ff9737" style="fill: var(--color3, #ff9737)" d="M1.783 32h-0.845c-0.518 0-0.938-0.42-0.938-0.938v-0.845c0-2.262 0.577-4.504 1.67-6.486 1.088-1.974 2.67-3.657 4.574-4.866 0.371-0.235 0.855-0.182 1.166 0.128l5.596 5.596c0.31 0.31 0.364 0.795 0.128 1.166-1.209 1.904-2.892 3.486-4.866 4.574-1.981 1.092-4.224 1.67-6.485 1.67z"></path>
<path fill="#ff6108" style="fill: var(--color4, #ff6108)" d="M0.938 32h0.845c2.262 0 4.504-0.577 6.485-1.67 1.974-1.088 3.657-2.67 4.866-4.574 0.235-0.371 0.182-0.855-0.128-1.166l-2.798-2.798-9.933 9.933c0.17 0.17 0.404 0.275 0.663 0.275z"></path>
<path fill="#0167ff" style="fill: var(--color5, #0167ff)" d="M20.152 30.464c-0.050 0-0.1-0.004-0.15-0.012-0.298-0.048-0.554-0.237-0.688-0.506l-2.756-5.512c-0.203-0.406-0.086-0.9 0.279-1.171l8.145-6.065c0.274-0.204 0.637-0.243 0.948-0.102s0.52 0.44 0.547 0.781c0.306 3.921-1.113 7.765-3.893 10.545l-1.768 1.768c-0.177 0.177-0.416 0.275-0.663 0.275z"></path>
<path fill="#3685fb" style="fill: var(--color6, #3685fb)" d="M7.985 15.542c-0.142 0-0.285-0.032-0.419-0.099l-5.512-2.756c-0.27-0.135-0.458-0.391-0.506-0.688s0.049-0.6 0.262-0.813l1.768-1.768c2.78-2.78 6.624-4.199 10.545-3.894 0.34 0.027 0.639 0.236 0.781 0.547s0.102 0.674-0.102 0.948l-6.065 8.145c-0.182 0.244-0.464 0.378-0.752 0.378z"></path>
<path fill="#e6f3ff" style="fill: var(--color7, #e6f3ff)" d="M30.854 10.28c-2.392-0.13-4.637-1.129-6.321-2.813s-2.683-3.929-2.813-6.321l-0.017-0.312c-3.097 0.928-5.965 2.613-8.318 4.965l-0.046 0.046c-3.639 3.639-6.4 7.927-8.207 12.745-0.129 0.344-0.045 0.732 0.215 0.992l7.071 7.071c0.179 0.179 0.419 0.275 0.663 0.275 0.11 0 0.222-0.020 0.329-0.060 4.818-1.807 9.106-4.568 12.745-8.207l0.047-0.047c2.353-2.353 4.037-5.221 4.965-8.318l-0.312-0.017z"></path>
<path fill="#d2dcf0" style="fill: var(--color8, #d2dcf0)" d="M12.418 26.653c0.179 0.179 0.419 0.275 0.663 0.275 0.11 0 0.222-0.020 0.329-0.060 4.818-1.807 9.106-4.568 12.745-8.207l0.047-0.047c2.353-2.353 4.037-5.221 4.965-8.318l-0.312-0.017c-2.392-0.13-4.637-1.129-6.321-2.813l-15.651 15.651 3.536 3.536z"></path>
<path fill="#3685fb" style="fill: var(--color6, #3685fb)" d="M31.681 1.074c-0.070-0.384-0.37-0.685-0.755-0.755-3.347-0.609-6.739-0.336-9.871 0.721l0.040 0.731c0.13 2.392 1.129 4.637 2.813 6.321s3.929 2.683 6.321 2.813l0.731 0.040c1.057-3.132 1.329-6.524 0.721-9.871z"></path>
<path fill="#0167ff" style="fill: var(--color5, #0167ff)" d="M23.908 8.092c1.684 1.684 3.929 2.683 6.321 2.813l0.731 0.040c1.057-3.132 1.329-6.524 0.721-9.871-0.035-0.192-0.128-0.363-0.259-0.495l-7.513 7.513z"></path>
<path fill="#3685fb" style="fill: var(--color6, #3685fb)" d="M19.71 16.353c-1.085 0-2.105-0.423-2.873-1.19s-1.19-1.787-1.19-2.873c0-1.085 0.423-2.105 1.19-2.873s1.788-1.19 2.873-1.19 2.105 0.423 2.873 1.19c0.767 0.767 1.19 1.787 1.19 2.873s-0.423 2.105-1.19 2.873c-0.767 0.767-1.788 1.19-2.873 1.19z"></path>
<path fill="#3685fb" style="fill: var(--color6, #3685fb)" d="M6.894 26.044c-0.24 0-0.48-0.092-0.663-0.275-0.366-0.366-0.366-0.96 0-1.326l7.955-7.955c0.366-0.366 0.96-0.366 1.326 0s0.366 0.96 0 1.326l-7.955 7.955c-0.183 0.183-0.423 0.275-0.663 0.275z"></path>
<path fill="#0167ff" style="fill: var(--color5, #0167ff)" d="M16.837 15.163c0.767 0.767 1.788 1.19 2.873 1.19s2.105-0.423 2.873-1.19c0.767-0.767 1.19-1.787 1.19-2.873s-0.423-2.105-1.19-2.873l-5.745 5.745z"></path>
<path fill="#0167ff" style="fill: var(--color5, #0167ff)" d="M6.231 25.77c0.183 0.183 0.423 0.275 0.663 0.275s0.48-0.092 0.663-0.275l7.955-7.955c0.366-0.366 0.366-0.96 0-1.326 0 0 0 0-0 0l-9.281 9.281z"></path>
</symbol>
<symbol id="icon-booknow" viewBox="0 0 29 32">
<path fill="#fff" style="fill: var(--color9, #fff)" d="M24.267 4.049c-1.285-0.451-2.351-1.53-2.351-2.893 0-0.632-0.542-1.157-1.195-1.157s-1.195 0.524-1.195 1.157c0 1.278-1.036 2.313-2.313 2.313h-5.734c-1.278 0-2.313-1.036-2.313-2.313 0-0.632-0.542-1.157-1.195-1.157s-1.195 0.524-1.195 1.157c0 1.362-1.066 2.442-2.351 2.893-2.727 0.957-4.105 3.13-4.359 6.068-0.032 0.447 0.351 0.817 0.797 0.817h26.968c0.462 0 0.845-0.386 0.797-0.817-0.254-2.937-1.632-5.111-4.359-6.068z"></path>
<path fill="#fff" style="fill: var(--color9, #fff)" d="M27.096 13.247h-25.502c-0.877 0-1.594 0.694-1.594 1.542v9.5c0 4.627 2.391 7.711 7.969 7.711h12.751c5.579 0 7.969-3.084 7.969-7.711v-9.5c0-0.848-0.717-1.542-1.594-1.542zM9.898 26.155c-0.080 0.062-0.159 0.139-0.239 0.185-0.096 0.062-0.191 0.108-0.287 0.139-0.096 0.046-0.191 0.077-0.287 0.093-0.112 0.015-0.207 0.031-0.319 0.031-0.207 0-0.414-0.046-0.606-0.123-0.207-0.077-0.367-0.185-0.526-0.324-0.287-0.293-0.462-0.694-0.462-1.095s0.175-0.802 0.462-1.095c0.159-0.139 0.319-0.247 0.526-0.324 0.287-0.123 0.606-0.154 0.924-0.093 0.096 0.015 0.191 0.046 0.287 0.093 0.096 0.031 0.191 0.077 0.287 0.139 0.080 0.062 0.159 0.123 0.239 0.185 0.287 0.293 0.462 0.694 0.462 1.095s-0.175 0.802-0.462 1.095zM9.898 20.757c-0.303 0.278-0.717 0.447-1.132 0.447s-0.829-0.17-1.132-0.447c-0.287-0.293-0.462-0.694-0.462-1.095s0.175-0.802 0.462-1.095c0.446-0.432 1.148-0.571 1.737-0.324 0.207 0.077 0.383 0.185 0.526 0.324 0.287 0.293 0.462 0.694 0.462 1.095s-0.175 0.802-0.462 1.095zM15.477 26.155c-0.303 0.277-0.717 0.447-1.132 0.447s-0.829-0.17-1.132-0.447c-0.287-0.293-0.462-0.694-0.462-1.095s0.175-0.802 0.462-1.095c0.59-0.571 1.674-0.571 2.263 0 0.287 0.293 0.462 0.694 0.462 1.095s-0.175 0.802-0.462 1.095zM15.477 20.757c-0.080 0.062-0.159 0.123-0.239 0.185-0.096 0.062-0.191 0.108-0.287 0.139-0.096 0.046-0.191 0.077-0.287 0.093-0.112 0.015-0.207 0.031-0.319 0.031-0.414 0-0.829-0.17-1.132-0.447-0.287-0.293-0.462-0.694-0.462-1.095s0.175-0.802 0.462-1.095c0.143-0.139 0.319-0.247 0.526-0.324 0.59-0.247 1.291-0.108 1.737 0.324 0.287 0.293 0.462 0.694 0.462 1.095s-0.175 0.802-0.462 1.095zM21.055 26.155c-0.303 0.277-0.717 0.447-1.132 0.447s-0.829-0.17-1.132-0.447c-0.287-0.293-0.462-0.694-0.462-1.095s0.175-0.802 0.462-1.095c0.59-0.571 1.674-0.571 2.263 0 0.287 0.293 0.462 0.694 0.462 1.095s-0.175 0.802-0.462 1.095zM21.055 20.757c-0.080 0.062-0.159 0.123-0.239 0.185-0.096 0.062-0.191 0.108-0.287 0.139-0.096 0.046-0.191 0.077-0.287 0.093-0.112 0.015-0.223 0.031-0.319 0.031-0.414 0-0.829-0.17-1.132-0.447-0.287-0.293-0.462-0.694-0.462-1.095s0.175-0.802 0.462-1.095c0.159-0.139 0.319-0.247 0.526-0.324 0.287-0.123 0.606-0.154 0.924-0.093 0.096 0.015 0.191 0.046 0.287 0.093 0.096 0.031 0.191 0.077 0.287 0.139 0.080 0.062 0.159 0.123 0.239 0.185 0.287 0.293 0.462 0.694 0.462 1.095s-0.175 0.802-0.462 1.095z"></path>
</symbol>
<symbol id="icon-bigStars" viewBox="0 0 39 32">
<path fill="#000" style="fill: var(--color10, #000)" d="M18.743 19.934c-0.155 0.32-0.143 0.697 0.032 1.007l2.485 4.259c0.21 0.361 0.19 0.812-0.052 1.153-0.232 0.347-0.644 0.529-1.057 0.469l-4.884-0.645c-0.17-0.024-0.344-0.007-0.508 0.047l-0.251 0.092c-0.082 0.045-0.158 0.104-0.22 0.175l-3.321 3.647c-0.166 0.176-0.382 0.296-0.621 0.342-0.586 0.096-1.143-0.293-1.254-0.877l-0.837-4.86c-0.067-0.353-0.3-0.651-0.626-0.799l-4.528-2.024c-0.379-0.17-0.625-0.542-0.631-0.956-0.010-0.412 0.21-0.796 0.57-0.995l4.362-2.347c0.337-0.164 0.567-0.489 0.61-0.862l0.513-4.9c0.014-0.11 0.045-0.218 0.094-0.318l0.060-0.095c0.026-0.064 0.062-0.122 0.105-0.175l0.088-0.074 0.134-0.122 0.39-0.142c0.362-0.091 0.744 0.006 1.018 0.259l3.566 3.393c0.259 0.249 0.624 0.354 0.975 0.284l4.849-1.010c0.409-0.086 0.833 0.064 1.097 0.388 0.257 0.327 0.301 0.773 0.113 1.145l-2.27 4.543z"></path>
<path fill="#ff3d22" style="fill: var(--color11, #ff3d22)" opacity="0.5" d="M14.472 17.47c-2.121 0-3.842 1.722-3.842 3.842s1.721 3.842 3.842 3.842c2.125 0 3.842-1.721 3.842-3.842s-1.717-3.842-3.842-3.842z"></path>
<path fill="#ffac95" style="fill: var(--color12, #ffac95)" opacity="0.4" d="M30.052 19.218c-0.391 0.226-0.647 0.631-0.684 1.081l-0.422 6.248c-0.036 0.529-0.379 0.988-0.876 1.175-0.492 0.199-1.054 0.097-1.446-0.26l-4.675-4.158c-0.162-0.147-0.356-0.252-0.567-0.312l-0.329-0.083c-0.118-0.012-0.239-0.003-0.355 0.027l-6.090 1.467c-0.3 0.067-0.613 0.038-0.896-0.083-0.685-0.317-0.993-1.122-0.693-1.816l2.583-5.705c0.181-0.418 0.148-0.898-0.089-1.287l-3.318-5.354c-0.277-0.448-0.271-1.015 0.018-1.455 0.284-0.44 0.787-0.687 1.309-0.64l6.258 0.641c0.471 0.068 0.945-0.11 1.255-0.471l4.031-4.786c0.094-0.106 0.203-0.197 0.325-0.267l0.131-0.058c0.073-0.049 0.152-0.085 0.235-0.109l0.145-0.015 0.228-0.033 0.511 0.129c0.445 0.162 0.778 0.537 0.886 0.998l1.331 6.108c0.095 0.446 0.403 0.817 0.823 0.993l5.817 2.393c0.492 0.201 0.83 0.661 0.877 1.189 0.037 0.527-0.235 1.027-0.697 1.284l-5.624 3.159z"></path>
</symbol>
<symbol id="icon-Calendar" viewBox="0 0 31 32">
<path fill="#000" style="fill: var(--color10, #000)" d="M7.409 4.294c-0.29 0.389-0.913 1.715-1.213 2.389l20.843 8.743c0.271-0.687 0.784-2.071 0.855-2.539 0.466-2.651-0.767-5.006-3.312-6.348l-10.322-4.33c-2.759-0.897-5.276-0.127-6.85 2.085zM2.493 15.499l3.699-8.819 20.851 8.747-3.729 8.889c-1.525 3.636-4.752 4.912-8.414 3.376l-8.961-3.759c-3.628-1.522-4.982-4.774-3.447-8.434z"></path>
<path fill="#00b3a0" style="fill: var(--color13, #00b3a0)" opacity="0.5" d="M19.98 8.457l-5.781-2.333c-2.097-0.846-3.856-0.005-4.779 2.281l-3.125 7.742c-0.938 2.323-0.243 4.12 1.854 4.967l5.781 2.333c2.131 0.86 3.843 0.035 4.781-2.289l3.125-7.742c0.923-2.286 0.275-4.099-1.856-4.959z"></path>
<path fill="#00b3a0" style="fill: var(--color13, #00b3a0)" opacity="0.35" d="M8.738 12.963c-0.117 0.471-0.179 1.934-0.195 2.672h22.602c-0.016-0.739-0.078-2.213-0.193-2.672-0.596-2.625-2.643-4.32-5.51-4.572h-11.194c-2.892 0.24-4.914 1.923-5.51 4.572zM8.539 15.635v9.563c0 3.97 2.507 6.444 6.441 6.444h9.717c3.971 0 6.453-2.425 6.453-6.368v-9.64h-22.611zM13.702 21.104c0.025 0.577 0.496 1.030 1.067 1.004 0.558-0.024 1.005-0.501 0.98-1.080-0.012-0.564-0.472-1.005-1.030-1.005-0.571 0.026-1.018 0.504-1.018 1.082zM18.802 21.104c0.025 0.577 0.496 1.030 1.067 1.004 0.558-0.024 1.005-0.501 0.98-1.080-0.012-0.564-0.472-1.005-1.030-1.005-0.571 0.026-1.018 0.504-1.018 1.082zM23.903 25.663c0 0.578 0.459 1.055 1.030 1.068 0.583 0 1.055-0.477 1.055-1.068 0-0.589-0.472-1.067-1.055-1.067h-0.012c-0.571 0.013-1.030 0.489-1.018 1.067zM19.87 26.668c-0.571 0.026-1.042-0.427-1.067-1.005 0-0.578 0.447-1.054 1.018-1.080 0.558 0 1.018 0.441 1.030 1.006 0.025 0.578-0.422 1.055-0.98 1.079zM14.757 26.668c-0.571 0.026-1.042-0.427-1.067-1.005 0-0.578 0.447-1.054 1.018-1.080 0.558 0 1.018 0.441 1.030 1.006 0.025 0.578-0.422 1.055-0.98 1.079zM24.933 20.036c-0.571 0.013-1.018 0.477-1.018 1.055v0.013c0.012 0.577 0.484 1.016 1.055 1.004 0.558-0.011 1.005-0.489 0.993-1.067-0.025-0.554-0.472-1.005-1.030-1.005z"></path>
<path fill="#000" style="fill: var(--color10, #000)" d="M8.544 15.635l-0.283-0.006c-0.002 0.076 0.027 0.15 0.081 0.204s0.126 0.085 0.202 0.085v-0.283zM8.738 12.963l0.275 0.068c0-0.002 0.001-0.004 0.001-0.006l-0.276-0.062zM31.146 15.635v0.283c0.076 0 0.149-0.031 0.202-0.085s0.082-0.128 0.081-0.204l-0.283 0.006zM30.953 12.963l-0.276 0.063c0.001 0.002 0.001 0.004 0.002 0.006l0.275-0.069zM25.442 8.39l0.025-0.282c-0.008-0.001-0.017-0.001-0.025-0.001v0.283zM14.248 8.39v-0.283c-0.008 0-0.016 0-0.023 0.001l0.023 0.282zM8.539 15.635v-0.283c-0.156 0-0.283 0.127-0.283 0.283h0.283zM31.15 15.635h0.283c0-0.156-0.127-0.283-0.283-0.283v0.283zM14.769 22.108l-0.012-0.283-0.001 0 0.013 0.283zM13.702 21.104h-0.283c0 0.004 0 0.008 0 0.012l0.283-0.012zM15.75 21.028l-0.283 0.006c0 0.002 0 0.004 0 0.006l0.283-0.012zM14.72 20.023v-0.283c-0.004 0-0.009 0-0.013 0l0.013 0.283zM19.87 22.108l-0.012-0.283-0.001 0 0.013 0.283zM18.802 21.104h-0.283c0 0.004 0 0.008 0 0.012l0.283-0.012zM20.85 21.028l-0.283 0.006c0 0.002 0 0.004 0 0.006l0.283-0.012zM19.82 20.023v-0.283c-0.004 0-0.009 0-0.013 0l0.013 0.283zM24.933 26.731l-0.006 0.283c0.002 0 0.004 0 0.006 0v-0.283zM23.903 25.663h0.283c0-0.002-0-0.004-0-0.006l-0.283 0.006zM24.921 24.596v-0.283c-0.002 0-0.004 0-0.006 0l0.006 0.283zM18.802 25.663h-0.283c0 0.004 0 0.008 0 0.012l0.283-0.012zM19.87 26.668l-0.012-0.283-0.001 0 0.013 0.283zM19.82 24.583v-0.283c-0.004 0-0.009 0-0.013 0l0.013 0.283zM20.85 25.589l-0.283 0.006c0 0.002 0 0.004 0 0.006l0.283-0.012zM13.689 25.663h-0.283c0 0.004 0 0.008 0 0.012l0.283-0.012zM14.757 26.668l-0.012-0.283-0.001 0 0.013 0.283zM14.707 24.583v-0.283c-0.004 0-0.009 0-0.013 0l0.013 0.283zM15.737 25.589l-0.283 0.006c0 0.002 0 0.004 0 0.006l0.283-0.012zM24.933 20.036v-0.283c-0.002 0-0.004 0-0.006 0l0.006 0.283zM23.915 21.104h-0.283c0 0.002 0 0.004 0 0.006l0.283-0.006zM24.97 22.108l-0.006-0.283h-0l0.006 0.283zM25.963 21.041l0.283-0.006c-0-0.002-0-0.004-0-0.007l-0.283 0.013zM8.827 15.641c0.008-0.366 0.027-0.912 0.059-1.424 0.033-0.523 0.076-0.98 0.127-1.186l-0.55-0.136c-0.066 0.265-0.111 0.776-0.143 1.287-0.032 0.521-0.052 1.075-0.060 1.447l0.566 0.012zM31.146 15.351h-22.602v0.566h22.602v-0.566zM30.678 13.032c0.050 0.199 0.094 0.654 0.126 1.179 0.032 0.514 0.051 1.063 0.059 1.43l0.566-0.012c-0.008-0.372-0.028-0.929-0.060-1.452-0.031-0.512-0.077-1.023-0.142-1.283l-0.549 0.138zM25.417 8.672c2.756 0.243 4.693 1.859 5.259 4.353l0.552-0.125c-0.626-2.757-2.784-4.53-5.761-4.792l-0.050 0.564zM14.248 8.673h11.194v-0.566h-11.194v0.566zM9.015 13.025c0.566-2.518 2.478-4.122 5.257-4.352l-0.047-0.564c-3.004 0.249-5.138 2.012-5.763 4.793l0.553 0.124zM8.822 25.198v-9.563h-0.566v9.563h0.566zM14.98 31.359c-1.907 0-3.44-0.599-4.496-1.651s-1.662-2.586-1.662-4.51h-0.566c0 2.045 0.647 3.734 1.828 4.911s2.868 1.816 4.896 1.816v-0.566zM24.697 31.359h-9.717v0.566h9.717v-0.566zM30.867 25.275c0 1.911-0.6 3.425-1.653 4.461s-2.59 1.624-4.517 1.624v0.566c2.043 0 3.734-0.625 4.914-1.787s1.822-2.832 1.822-4.864h-0.566zM30.867 15.635v9.64h0.566v-9.64h-0.566zM8.539 15.918h22.611v-0.566h-22.611v0.566zM14.756 21.825c-0.405 0.019-0.753-0.304-0.771-0.733l-0.566 0.024c0.031 0.724 0.627 1.308 1.363 1.274l-0.026-0.566zM15.467 21.040c0.018 0.423-0.308 0.768-0.71 0.785l0.024 0.566c0.715-0.031 1.283-0.64 1.251-1.375l-0.566 0.024zM14.72 20.306c0.406 0 0.738 0.32 0.747 0.728l0.566-0.012c-0.016-0.72-0.603-1.282-1.313-1.282v0.566zM13.985 21.104c0-0.431 0.332-0.779 0.748-0.799l-0.026-0.566c-0.726 0.034-1.288 0.64-1.288 1.364h0.566zM19.857 21.825c-0.405 0.019-0.753-0.304-0.771-0.733l-0.566 0.024c0.031 0.724 0.627 1.308 1.363 1.274l-0.026-0.566zM20.567 21.040c0.018 0.423-0.308 0.768-0.71 0.785l0.024 0.566c0.715-0.031 1.283-0.64 1.251-1.375l-0.566 0.024zM19.82 20.306c0.407 0 0.738 0.32 0.747 0.728l0.566-0.012c-0.016-0.72-0.603-1.282-1.313-1.282v0.566zM19.086 21.104c0-0.431 0.332-0.779 0.748-0.799l-0.026-0.566c-0.726 0.034-1.288 0.64-1.288 1.364h0.566zM24.939 26.448c-0.413-0.009-0.753-0.357-0.753-0.785h-0.566c0 0.728 0.578 1.335 1.307 1.351l0.012-0.566zM25.705 25.663c0 0.437-0.348 0.785-0.772 0.785v0.566c0.743 0 1.338-0.607 1.338-1.351h-0.566zM24.933 24.88c0.424 0 0.772 0.348 0.772 0.783h0.566c0-0.742-0.595-1.35-1.338-1.35v0.566zM24.921 24.88h0.012v-0.566h-0.012v0.566zM24.186 25.657c-0.009-0.422 0.326-0.768 0.741-0.777l-0.012-0.566c-0.727 0.016-1.31 0.622-1.295 1.356l0.566-0.012zM18.52 25.675c0.031 0.725 0.626 1.31 1.363 1.276l-0.026-0.566c-0.405 0.019-0.753-0.303-0.771-0.734l-0.566 0.024zM19.807 24.3c-0.726 0.034-1.288 0.638-1.288 1.363h0.566c0-0.43 0.332-0.778 0.748-0.797l-0.026-0.566zM21.133 25.583c-0.016-0.721-0.602-1.283-1.313-1.283v0.566c0.406 0 0.738 0.32 0.747 0.729l0.566-0.012zM19.882 26.951c0.715-0.031 1.283-0.64 1.251-1.374l-0.566 0.024c0.018 0.422-0.308 0.767-0.71 0.784l0.024 0.566zM13.407 25.675c0.031 0.725 0.626 1.31 1.363 1.276l-0.026-0.566c-0.405 0.019-0.753-0.303-0.771-0.734l-0.566 0.024zM14.694 24.3c-0.726 0.034-1.288 0.638-1.288 1.363h0.566c0-0.43 0.332-0.778 0.748-0.797l-0.026-0.566zM16.020 25.583c-0.016-0.721-0.602-1.283-1.313-1.283v0.566c0.406 0 0.738 0.32 0.747 0.729l0.566-0.012zM14.769 26.951c0.715-0.031 1.283-0.64 1.251-1.374l-0.566 0.024c0.018 0.422-0.308 0.767-0.71 0.784l0.024 0.566zM24.199 21.092c0-0.428 0.328-0.763 0.741-0.772l-0.012-0.566c-0.729 0.016-1.295 0.611-1.295 1.338h0.566zM24.199 21.104v-0.013h-0.566v0.013h0.566zM24.964 21.825c-0.418 0.009-0.757-0.31-0.765-0.727l-0.566 0.012c0.016 0.736 0.62 1.297 1.344 1.281l-0.012-0.566zM25.68 21.047c0.009 0.429-0.321 0.769-0.715 0.777l0.011 0.566c0.722-0.015 1.286-0.629 1.27-1.356l-0.566 0.012zM24.933 20.32c0.399 0 0.729 0.324 0.747 0.734l0.566-0.025c-0.031-0.697-0.595-1.275-1.313-1.275v0.566z"></path>
<path fill="#000" style="fill: var(--color10, #000)" d="M25.442 11.317c0 0.554-0.422 0.967-0.956 0.967-0.546 0-0.956-0.413-0.956-0.967v-3.83c0-0.554 0.41-0.969 0.956-0.969 0.534 0 0.956 0.415 0.956 0.969v3.83zM16.159 11.317c0 0.554-0.41 0.967-0.956 0.967s-0.956-0.413-0.956-0.967v-3.83c0-0.554 0.41-0.968 0.956-0.968s0.956 0.415 0.956 0.968v3.83z"></path>
<path fill="#000" style="fill: var(--color10, #000)" d="M24.486 12.398c0.596 0 1.069-0.464 1.069-1.081h-0.227c0 0.492-0.371 0.854-0.842 0.854v0.227zM23.418 11.317c0 0.615 0.459 1.081 1.069 1.081v-0.227c-0.482 0-0.842-0.361-0.842-0.854h-0.227zM23.418 7.487v3.83h0.227v-3.83h-0.227zM24.486 6.405c-0.61 0-1.069 0.467-1.069 1.082h0.227c0-0.493 0.36-0.855 0.842-0.855v-0.227zM25.555 7.487c0-0.616-0.472-1.082-1.069-1.082v0.227c0.471 0 0.842 0.363 0.842 0.855h0.227zM25.555 11.317v-3.83h-0.227v3.83h0.227zM15.203 12.398c0.61 0 1.069-0.465 1.069-1.081h-0.227c0 0.493-0.36 0.854-0.842 0.854v0.227zM14.134 11.317c0 0.615 0.459 1.081 1.069 1.081v-0.227c-0.482 0-0.842-0.361-0.842-0.854h-0.227zM14.134 7.487v3.83h0.227v-3.83h-0.227zM15.203 6.405c-0.61 0-1.069 0.467-1.069 1.082h0.227c0-0.493 0.36-0.855 0.842-0.855v-0.227zM16.272 7.487c0-0.615-0.459-1.082-1.069-1.082v0.227c0.482 0 0.842 0.362 0.842 0.855h0.227zM16.272 11.317v-3.83h-0.227v3.83h0.227z"></path>
<path fill="#000" style="fill: var(--color10, #000)" d="M13.713 21.116c0.025 0.577 0.496 1.030 1.067 1.004 0.558-0.024 1.005-0.501 0.98-1.080-0.012-0.564-0.472-1.005-1.030-1.005-0.571 0.026-1.018 0.504-1.018 1.082zM18.814 21.116c0.025 0.577 0.496 1.030 1.067 1.004 0.558-0.024 1.005-0.501 0.98-1.080-0.012-0.564-0.472-1.005-1.030-1.005-0.571 0.026-1.018 0.504-1.018 1.082zM23.914 25.674c0 0.578 0.459 1.055 1.030 1.068 0.583 0 1.055-0.477 1.055-1.068 0-0.589-0.472-1.067-1.055-1.067h-0.012c-0.571 0.013-1.030 0.489-1.018 1.067zM19.881 26.679c-0.571 0.026-1.042-0.427-1.067-1.005 0-0.578 0.447-1.054 1.018-1.080 0.558 0 1.018 0.441 1.030 1.006 0.025 0.578-0.422 1.055-0.98 1.079zM14.768 26.679c-0.571 0.026-1.042-0.427-1.067-1.005 0-0.578 0.447-1.054 1.018-1.080 0.558 0 1.018 0.441 1.030 1.006 0.025 0.578-0.422 1.055-0.98 1.079zM24.944 20.048c-0.571 0.013-1.018 0.477-1.018 1.055v0.013c0.012 0.577 0.484 1.016 1.055 1.004 0.558-0.011 1.005-0.489 0.993-1.066-0.025-0.554-0.472-1.005-1.030-1.005z"></path>
<path fill="#000" style="fill: var(--color10, #000)" d="M14.781 22.119l-0.005-0.113h-0l0.005 0.113zM13.713 21.116h-0.113v0.002l0 0.002 0.113-0.005zM15.761 21.039l-0.113 0.003 0 0.002 0.113-0.005zM14.731 20.034v-0.113h-0.003l-0.003 0 0.005 0.113zM19.881 22.119l-0.005-0.113h-0l0.005 0.113zM18.814 21.116h-0.113v0.002l0 0.002 0.113-0.005zM20.861 21.039l-0.113 0.003 0 0.002 0.113-0.005zM19.831 20.034v-0.113h-0.003l-0.003 0 0.005 0.113zM24.944 26.742l-0.003 0.113h0.003v-0.113zM23.914 25.674h0.113l-0-0.002-0.113 0.002zM24.932 24.608v-0.113l-0.003 0 0.003 0.113zM18.814 25.674h-0.113v0.002l0 0.002 0.113-0.005zM19.881 26.679l-0.005-0.113-0 0 0.005 0.113zM19.831 24.594v-0.113h-0.003l-0.003 0 0.005 0.113zM20.861 25.6l-0.113 0.002 0 0.002 0.113-0.005zM13.701 25.674h-0.113v0.002l0 0.002 0.113-0.005zM14.768 26.679l-0.005-0.113-0 0 0.005 0.113zM14.718 24.594v-0.113h-0.003l-0.003 0 0.005 0.113zM15.748 25.6l-0.113 0.002 0 0.002 0.113-0.005zM24.944 20.048v-0.113l-0.003 0 0.003 0.113zM23.927 21.116h-0.113l0 0.002 0.113-0.002zM24.981 22.119l-0.002-0.113h-0l0.003 0.113zM25.974 21.053l0.113-0.002-0-0.003-0.113 0.005zM14.775 22.006c-0.505 0.023-0.927-0.378-0.949-0.895l-0.226 0.010c0.027 0.635 0.549 1.141 1.186 1.112l-0.010-0.226zM15.648 21.044c0.022 0.517-0.376 0.941-0.872 0.962l0.010 0.226c0.621-0.027 1.116-0.557 1.089-1.198l-0.226 0.010zM14.731 20.147c0.498 0 0.906 0.392 0.917 0.894l0.226-0.005c-0.014-0.626-0.524-1.116-1.143-1.116v0.227zM13.827 21.116c0-0.519 0.401-0.945 0.91-0.968l-0.010-0.226c-0.633 0.029-1.126 0.558-1.126 1.195h0.227zM19.876 22.006c-0.505 0.023-0.927-0.378-0.949-0.895l-0.226 0.010c0.027 0.635 0.548 1.141 1.186 1.112l-0.010-0.226zM20.748 21.044c0.022 0.517-0.376 0.941-0.872 0.962l0.010 0.226c0.621-0.027 1.116-0.557 1.089-1.198l-0.226 0.010zM19.831 20.147c0.498 0 0.906 0.392 0.917 0.894l0.227-0.005c-0.014-0.626-0.524-1.116-1.143-1.116v0.227zM18.927 21.116c0-0.519 0.401-0.945 0.91-0.968l-0.010-0.226c-0.633 0.029-1.126 0.558-1.126 1.195h0.227zM24.947 26.629c-0.508-0.011-0.919-0.437-0.919-0.954h-0.227c0 0.638 0.507 1.167 1.141 1.181l0.005-0.227zM25.886 25.674c0 0.529-0.422 0.954-0.942 0.954v0.227c0.647 0 1.168-0.529 1.168-1.181h-0.227zM24.944 24.721c0.52 0 0.942 0.425 0.942 0.953h0.227c0-0.651-0.521-1.18-1.168-1.18v0.227zM24.932 24.721h0.012v-0.227h-0.012v0.227zM24.027 25.672c-0.011-0.515 0.399-0.94 0.907-0.951l-0.005-0.227c-0.633 0.014-1.142 0.542-1.128 1.182l0.227-0.005zM18.7 25.679c0.027 0.637 0.548 1.143 1.186 1.113l-0.010-0.226c-0.504 0.023-0.927-0.378-0.949-0.897l-0.226 0.010zM19.826 24.481c-0.633 0.029-1.126 0.557-1.126 1.194h0.227c0-0.519 0.401-0.944 0.91-0.967l-0.010-0.226zM20.975 25.598c-0.014-0.628-0.524-1.117-1.143-1.117v0.227c0.498 0 0.906 0.392 0.917 0.895l0.227-0.005zM19.886 26.792c0.621-0.027 1.116-0.557 1.089-1.197l-0.226 0.010c0.022 0.515-0.376 0.94-0.872 0.961l0.010 0.226zM13.587 25.679c0.027 0.637 0.548 1.143 1.186 1.113l-0.010-0.226c-0.504 0.023-0.927-0.378-0.949-0.897l-0.226 0.010zM14.713 24.481c-0.633 0.029-1.126 0.557-1.126 1.194h0.227c0-0.519 0.401-0.944 0.91-0.967l-0.010-0.226zM15.862 25.598c-0.014-0.628-0.524-1.117-1.143-1.117v0.227c0.498 0 0.906 0.392 0.917 0.895l0.226-0.005zM14.773 26.792c0.621-0.027 1.116-0.557 1.089-1.197l-0.226 0.010c0.022 0.515-0.376 0.94-0.872 0.961l0.010 0.226zM24.040 21.103c0-0.518 0.399-0.931 0.907-0.942l-0.005-0.227c-0.634 0.014-1.128 0.531-1.128 1.168h0.227zM24.040 21.116v-0.013h-0.227v0.013h0.227zM24.979 22.006c-0.51 0.011-0.928-0.38-0.939-0.893l-0.227 0.005c0.014 0.64 0.538 1.128 1.171 1.114l-0.005-0.227zM25.861 21.055c0.011 0.518-0.389 0.941-0.882 0.951l0.005 0.227c0.624-0.013 1.117-0.545 1.104-1.182l-0.227 0.005zM24.944 20.161c0.495 0 0.895 0.4 0.917 0.897l0.226-0.010c-0.027-0.611-0.521-1.113-1.143-1.113v0.227z"></path>
<path fill="#000" style="fill: var(--color10, #000)" opacity="0.25" d="M9.693 15.729c0 0.534 0.413 0.956 0.967 0.956h17.907c0.554 0 0.968-0.422 0.968-0.956 0-0.546-0.415-0.956-0.968-0.956h-17.907c-0.554 0-0.967 0.41-0.967 0.956z"></path>
</symbol>
<symbol id="icon-Chat" viewBox="0 0 35 32">
<path fill="#000" style="fill: var(--color10, #000)" d="M22.149 8.718c6.253 0 10.783 5.101 10.783 10.762 0 1.808-0.527 3.67-1.453 5.37-0.172 0.28-0.194 0.635-0.076 0.969l0.721 2.411c0.162 0.581-0.334 1.012-0.882 0.839l-2.174-0.646c-0.592-0.194-1.055 0.054-1.605 0.387-1.571 0.925-3.529 1.399-5.294 1.399-5.338 0-10.762-4.122-10.762-10.762 0-5.725 4.628-10.729 10.74-10.729z"></path>
<path fill="#3685fb" style="fill: var(--color6, #3685fb)" opacity="0.5" d="M29.021 19.587c0 3.839-3.112 6.95-6.95 6.95s-6.95-3.111-6.95-6.95c0-3.838 3.112-6.95 6.95-6.95s6.95 3.112 6.95 6.95z"></path>
<path fill="#3685fb" style="fill: var(--color6, #3685fb)" opacity="0.35" d="M14.070 0.311c-7.979 0-13.76 6.509-13.76 13.732 0 2.307 0.673 4.683 1.854 6.852 0.22 0.357 0.247 0.81 0.096 1.236l-0.92 3.076c-0.206 0.742 0.426 1.291 1.126 1.071l2.774-0.824c0.755-0.247 1.346 0.069 2.047 0.494 2.005 1.181 4.503 1.785 6.755 1.785 6.811 0 13.732-5.259 13.732-13.732 0-7.306-5.905-13.691-13.705-13.691z"></path>
<path fill="#000" style="fill: var(--color10, #000)" d="M14.070 0.621c0.172 0 0.311-0.139 0.311-0.311s-0.139-0.311-0.311-0.311v0.621zM2.165 20.895l-0.273 0.149c0.003 0.005 0.005 0.010 0.008 0.014l0.265-0.163zM2.261 22.131l-0.293-0.104c-0.002 0.005-0.003 0.010-0.005 0.015l0.298 0.089zM1.341 25.207l-0.298-0.089c-0.001 0.002-0.001 0.004-0.002 0.006l0.299 0.083zM2.467 26.279l-0.088-0.298c-0.002 0-0.003 0.001-0.005 0.001l0.093 0.296zM5.241 25.455l0.088 0.298c0.003-0.001 0.005-0.002 0.008-0.003l-0.097-0.295zM7.288 25.949l-0.161 0.266 0.003 0.002 0.158-0.268zM14.070 0c-0.172 0-0.311 0.139-0.311 0.311s0.139 0.311 0.311 0.311v-0.621zM14.070 0c-8.16 0-14.070 6.659-14.070 14.043h0.621c0-7.062 5.652-13.422 13.449-13.422v-0.621zM0 14.043c0 2.366 0.69 4.793 1.892 7.001l0.546-0.297c-1.16-2.131-1.816-4.456-1.816-6.704h-0.621zM1.9 21.058c0.163 0.265 0.193 0.618 0.068 0.969l0.586 0.208c0.177-0.5 0.152-1.053-0.124-1.503l-0.529 0.326zM1.963 22.042l-0.92 3.076 0.595 0.178 0.92-3.076-0.595-0.178zM1.041 25.124c-0.132 0.477 0.002 0.922 0.312 1.208 0.307 0.283 0.757 0.384 1.206 0.243l-0.186-0.593c-0.251 0.079-0.467 0.015-0.599-0.107-0.129-0.119-0.208-0.32-0.134-0.584l-0.599-0.166zM2.555 26.576l2.774-0.824-0.177-0.596-2.774 0.824 0.177 0.596zM5.337 25.75c0.606-0.198 1.080 0.034 1.79 0.465l0.322-0.531c-0.694-0.421-1.401-0.82-2.305-0.524l0.193 0.591zM7.13 26.217c2.058 1.212 4.611 1.828 6.913 1.828v-0.621c-2.203 0-4.645-0.592-6.597-1.742l-0.315 0.535zM14.043 28.045c6.958 0 14.043-5.375 14.043-14.043h-0.621c0 8.277-6.757 13.422-13.422 13.422v0.621zM28.086 14.002c0-7.47-6.037-14.002-14.016-14.002v0.621c7.622 0 13.394 6.239 13.394 13.38h0.621z"></path>
<path fill="#000" style="fill: var(--color10, #000)" d="M14.016 15.814c-0.975-0.014-1.758-0.796-1.758-1.771 0-0.961 0.796-1.758 1.758-1.744 0.975 0 1.758 0.783 1.758 1.758 0 0.961-0.783 1.758-1.758 1.758zM7.685 15.814c-0.961 0-1.758-0.796-1.758-1.758 0-0.975 0.783-1.758 1.758-1.758s1.758 0.783 1.758 1.758c0 0.961-0.783 1.744-1.758 1.758zM18.589 14.057c0 0.961 0.783 1.758 1.758 1.758s1.758-0.796 1.758-1.758c0-0.975-0.783-1.758-1.758-1.758s-1.758 0.783-1.758 1.758z"></path>
<path fill="#000" style="fill: var(--color10, #000)" d="M14.016 15.814l-0.002 0.124h0.002v-0.124zM14.016 12.299l-0.002 0.124h0.002v-0.124zM7.685 15.814v0.124l0.002-0-0.002-0.124zM12.134 14.043c0 1.044 0.838 1.881 1.88 1.896l0.004-0.248c-0.908-0.013-1.635-0.741-1.635-1.647h-0.249zM14.018 12.175c-1.032-0.015-1.884 0.839-1.884 1.868h0.249c0-0.893 0.741-1.632 1.632-1.62l0.004-0.248zM15.898 14.057c0-1.044-0.838-1.882-1.882-1.882v0.249c0.906 0 1.633 0.727 1.633 1.633h0.249zM14.016 15.939c1.044 0 1.882-0.853 1.882-1.882h-0.249c0 0.893-0.728 1.633-1.633 1.633v0.249zM5.803 14.057c0 1.030 0.852 1.882 1.882 1.882v-0.249c-0.893 0-1.633-0.741-1.633-1.633h-0.249zM7.685 12.175c-1.044 0-1.882 0.838-1.882 1.882h0.249c0-0.906 0.727-1.633 1.633-1.633v-0.249zM9.567 14.057c0-1.044-0.838-1.882-1.882-1.882v0.249c0.906 0 1.633 0.727 1.633 1.633h0.249zM7.687 15.939c1.041-0.015 1.88-0.851 1.88-1.882h-0.249c0 0.892-0.727 1.621-1.635 1.633l0.003 0.248zM20.347 15.69c-0.906 0-1.634-0.74-1.634-1.633h-0.249c0 1.029 0.838 1.882 1.882 1.882v-0.249zM21.98 14.057c0 0.893-0.728 1.633-1.633 1.633v0.249c1.044 0 1.882-0.853 1.882-1.882h-0.249zM20.347 12.423c0.906 0 1.633 0.727 1.633 1.633h0.249c0-1.044-0.838-1.882-1.882-1.882v0.249zM18.713 14.057c0-0.906 0.727-1.633 1.634-1.633v-0.249c-1.044 0-1.882 0.838-1.882 1.882h0.249z"></path>
</symbol>
<symbol id="icon-arrowRight" viewBox="0 0 20 32">
<path fill="#fcfcfc" style="fill: var(--color14, #fcfcfc)" d="M0.869 0.898c-0.556 0.569-0.869 1.338-0.869 2.14s0.312 1.571 0.869 2.14l10.575 10.898-10.575 10.746c-0.556 0.569-0.869 1.338-0.869 2.14s0.312 1.571 0.869 2.14c0.278 0.285 0.608 0.51 0.972 0.665s0.754 0.233 1.149 0.233 0.785-0.079 1.149-0.233c0.364-0.154 0.694-0.38 0.972-0.665l12.666-12.871c0.28-0.282 0.502-0.618 0.654-0.988s0.23-0.767 0.23-1.167c0-0.401-0.078-0.798-0.23-1.167s-0.374-0.706-0.654-0.988l-12.666-13.023c-0.278-0.285-0.608-0.51-0.972-0.664s-0.754-0.233-1.149-0.233c-0.394 0-0.785 0.079-1.149 0.233s-0.694 0.38-0.972 0.664z"></path>
</symbol>
<symbol id="icon-arrowLeft" viewBox="0 0 20 32">
<path fill="#697687" style="fill: var(--color15, #697687)" d="M19.131 0.898c0.556 0.569 0.869 1.338 0.869 2.14s-0.312 1.571-0.869 2.14l-10.575 10.898 10.575 10.746c0.556 0.569 0.869 1.338 0.869 2.14s-0.312 1.571-0.869 2.14c-0.278 0.285-0.608 0.51-0.972 0.665s-0.754 0.233-1.149 0.233-0.785-0.079-1.149-0.233c-0.364-0.154-0.694-0.38-0.972-0.665l-12.666-12.871c-0.28-0.282-0.502-0.618-0.654-0.988s-0.23-0.767-0.23-1.167c0-0.401 0.078-0.798 0.23-1.167s0.374-0.706 0.654-0.988l12.666-13.023c0.278-0.285 0.608-0.51 0.972-0.664s0.754-0.233 1.149-0.233c0.394 0 0.785 0.079 1.149 0.233s0.694 0.38 0.972 0.664z"></path>
</symbol>
<symbol id="icon-quotation" viewBox="0 0 32 32">
<path fill="#3685fb" style="fill: var(--color6, #3685fb)" d="M0 17.687h8.375v2.443c0 1.396-1.136 2.531-2.531 2.531h-3.219v6.25h3.219c4.842 0 8.781-3.939 8.781-8.781v-17.068h-14.625v14.625z"></path>
<path fill="#3685fb" style="fill: var(--color6, #3685fb)" d="M17.375 3.063v14.625h8.375v2.443c0 1.396-1.135 2.531-2.531 2.531h-3.219v6.25h3.219c4.842 0 8.781-3.939 8.781-8.781v-17.068h-14.625z"></path>
</symbol>
<symbol id="icon-Printerst" viewBox="0 0 32 32">
<path fill="#697687" style="fill: var(--color15, #697687)" d="M13.171 22.667c-0.061-0.58-0.116-1.455 0.030-2.080 0.067-0.287 0.281-1.198 0.479-2.037l0.377-1.6-0.007-0.014c-0.006-0.014-0.015-0.033-0.025-0.059-0.021-0.052-0.048-0.127-0.076-0.223-0.055-0.192-0.11-0.466-0.11-0.793 0-1.026 0.595-1.8 1.347-1.8 0.319 0 0.557 0.12 0.714 0.312s0.234 0.455 0.234 0.739c0 0.318-0.101 0.713-0.226 1.136-0.035 0.118-0.072 0.239-0.11 0.36-0.097 0.314-0.196 0.637-0.271 0.951v0c-0.171 0.717 0.359 1.301 1.066 1.301 0.644 0 1.216-0.34 1.626-0.927s0.661-1.424 0.661-2.412c0-0.873-0.314-1.614-0.85-2.136s-1.298-0.828-2.193-0.828c-2.076 0-3.292 1.555-3.292 3.162 0 0.626 0.241 1.295 0.537 1.661 0 0 0 0 0 0l-0.015 0.012c0.059 0.071 0.068 0.136 0.050 0.21l0.054 5.065zM13.171 22.667c-2.703-1.072-4.618-3.713-4.618-6.801 0-4.040 3.274-7.314 7.314-7.314s7.314 3.274 7.314 7.314c0 4.040-3.273 7.314-7.314 7.314-0.746 0-1.464-0.112-2.141-0.32l-0.555-0.193z"></path>
<path fill="none" stroke="#697687" style="stroke: var(--color15, #697687)" stroke-linejoin="miter" stroke-linecap="butt" stroke-miterlimit="4" stroke-width="0.8" d="M16 0.4c8.616 0 15.6 6.984 15.6 15.6s-6.984 15.6-15.6 15.6c-8.616 0-15.6-6.984-15.6-15.6s6.984-15.6 15.6-15.6z"></path>
</symbol>
<symbol id="icon-instagram" viewBox="0 0 32 32">
<path fill="#697687" style="fill: var(--color15, #697687)" d="M21.945 18.552c-0.047 0.935-0.26 1.763-0.943 2.445-0.682 0.685-1.51 0.898-2.445 0.943l3.388-3.388zM21.945 18.552c0.055-0.964 0.055-3.849 0-4.812v4.812zM21.926 13.74v0c0.055 0.963 0.055 3.847 0 4.81v0c-0.047 0.932-0.26 1.755-0.937 2.432v0c-0.678 0.68-1.5 0.893-2.432 0.937h-0c-0.963 0.055-3.85 0.055-4.813 0h-0c-0.932-0.047-1.752-0.26-2.433-0.937s-0.893-1.5-0.937-2.432v-0c-0.055-0.963-0.055-3.85 0-4.813v-0c0.047-0.933 0.257-1.755 0.937-2.432s1.503-0.89 2.432-0.934l0-0c0.963-0.055 3.85-0.055 4.813 0h0c0.932 0.047 1.755 0.26 2.432 0.937v0c0.68 0.678 0.893 1.5 0.937 2.432zM19.598 20.713h0c0.518-0.208 0.915-0.605 1.12-1.12 0.154-0.386 0.212-1.038 0.233-1.695 0.015-0.471 0.010-0.948 0.006-1.337-0.002-0.154-0.003-0.295-0.003-0.415s0.001-0.261 0.003-0.415c0.004-0.388 0.009-0.865-0.006-1.336-0.021-0.657-0.079-1.309-0.233-1.696l-0-0c-0.208-0.518-0.605-0.915-1.12-1.12l-0-0c-0.386-0.152-1.038-0.211-1.695-0.232-0.475-0.015-0.955-0.010-1.346-0.007-0.151 0.001-0.288 0.003-0.406 0.003-0.12 0-0.261-0.001-0.415-0.003-0.388-0.004-0.865-0.009-1.336 0.006-0.657 0.021-1.309 0.079-1.696 0.233h-0c-0.518 0.208-0.915 0.605-1.12 1.12l-0 0c-0.152 0.386-0.211 1.038-0.232 1.695-0.015 0.475-0.010 0.956-0.007 1.346 0.001 0.151 0.003 0.288 0.003 0.406 0 0.12-0.001 0.261-0.003 0.415-0.004 0.388-0.009 0.865 0.006 1.336 0.021 0.658 0.079 1.309 0.233 1.696v0c0.208 0.518 0.605 0.915 1.12 1.12l0 0c0.386 0.152 1.038 0.211 1.695 0.232 0.475 0.015 0.956 0.010 1.346 0.007 0.151-0.001 0.288-0.003 0.406-0.003 0.12 0 0.261 0.001 0.415 0.003 0.388 0.004 0.865 0.009 1.336-0.006 0.658-0.021 1.309-0.079 1.696-0.233zM13.178 16.145c0-1.645 1.327-2.973 2.973-2.973s2.973 1.327 2.973 2.973c0 1.645-1.327 2.973-2.973 2.973s-2.973-1.327-2.973-2.973zM14.186 16.145c0 1.084 0.884 1.965 1.965 1.965s1.965-0.881 1.965-1.965c0-1.084-0.881-1.965-1.965-1.965s-1.965 0.881-1.965 1.965zM19.944 13.031c0 0.377-0.304 0.678-0.678 0.678-0.377 0-0.678-0.304-0.678-0.678s0.304-0.678 0.678-0.678c0.375 0 0.678 0.304 0.678 0.678z"></path>
<path fill="none" stroke="#697687" style="stroke: var(--color15, #697687)" stroke-linejoin="miter" stroke-linecap="butt" stroke-miterlimit="4" stroke-width="0.8" d="M16 0.4c8.616 0 15.6 6.984 15.6 15.6s-6.984 15.6-15.6 15.6c-8.616 0-15.6-6.984-15.6-15.6s6.984-15.6 15.6-15.6z"></path>
</symbol>
<symbol id="icon-facebook" viewBox="0 0 32 32">
<path fill="#697687" style="fill: var(--color15, #697687)" d="M17.138 16.833v5.814h-2.57v-5.833h-2.12v-2.374h2.12v-1.859c0-1.042 0.31-1.849 0.856-2.395s1.328-0.834 2.278-0.834c0.456 0 0.922 0.041 1.274 0.081 0.176 0.020 0.324 0.041 0.428 0.056 0.052 0.008 0.093 0.014 0.12 0.018l0.026 0.004v2.018h-1.033c-0.523 0-0.869 0.162-1.084 0.411s-0.296 0.579-0.296 0.912v1.585h2.312l-0.364 2.374h-1.948v0.020z"></path>
<path fill="none" stroke="#697687" style="stroke: var(--color15, #697687)" stroke-linejoin="miter" stroke-linecap="butt" stroke-miterlimit="4" stroke-width="0.8" d="M16 0.4c8.616 0 15.6 6.984 15.6 15.6s-6.984 15.6-15.6 15.6c-8.616 0-15.6-6.984-15.6-15.6s6.984-15.6 15.6-15.6z"></path>
</symbol>
<symbol id="icon-Logo" viewBox="0 0 75 32">
<path fill="#3685fb" style="fill: var(--color6, #3685fb)" d="M3.345 20.255v-9.569h-3.345v-2.185h9.183v2.185h-3.345v9.569h-2.492z"></path>
<path fill="#3685fb" style="fill: var(--color6, #3685fb)" d="M9.855 20.255v-8.741h2.158l0.084 1.324c0.223-0.464 0.524-0.817 0.903-1.060 0.379-0.254 0.825-0.381 1.338-0.381 0.156 0 0.312 0.017 0.468 0.050 0.156 0.022 0.295 0.055 0.418 0.099l-0.251 2.285c-0.123-0.044-0.251-0.072-0.385-0.083-0.123-0.022-0.251-0.033-0.385-0.033-0.647 0-1.143 0.199-1.489 0.596-0.346 0.386-0.519 0.938-0.519 1.656v4.288h-2.342z"></path>
<path fill="#3685fb" style="fill: var(--color6, #3685fb)" d="M19.012 9.147c0 0.254-0.061 0.48-0.184 0.679-0.111 0.199-0.273 0.359-0.485 0.48-0.201 0.11-0.424 0.166-0.669 0.166s-0.474-0.055-0.686-0.166c-0.201-0.121-0.362-0.281-0.485-0.48-0.111-0.199-0.167-0.425-0.167-0.679s0.056-0.48 0.167-0.679c0.123-0.199 0.284-0.353 0.485-0.463 0.212-0.121 0.44-0.182 0.686-0.182s0.468 0.061 0.669 0.182c0.212 0.11 0.374 0.265 0.485 0.463 0.123 0.199 0.184 0.425 0.184 0.679zM16.503 20.255v-8.741h2.342v8.741h-2.342z"></path>
<path fill="#3685fb" style="fill: var(--color6, #3685fb)" d="M20.718 23.467v-11.953h2.158l0.067 1.275c0.301-0.475 0.703-0.844 1.204-1.109 0.502-0.276 1.054-0.414 1.656-0.414 0.58 0 1.115 0.116 1.606 0.348s0.92 0.557 1.288 0.977c0.368 0.408 0.652 0.888 0.853 1.44 0.212 0.552 0.318 1.153 0.318 1.804 0 0.662-0.106 1.275-0.318 1.838s-0.507 1.059-0.886 1.49c-0.379 0.419-0.825 0.75-1.338 0.993-0.513 0.232-1.065 0.348-1.656 0.348-0.546 0-1.043-0.105-1.489-0.315-0.446-0.221-0.82-0.524-1.121-0.91v4.188h-2.342zM25.25 18.417c0.424 0 0.803-0.11 1.137-0.331s0.597-0.519 0.786-0.894c0.201-0.386 0.301-0.822 0.301-1.308s-0.1-0.916-0.301-1.291c-0.19-0.386-0.452-0.69-0.786-0.911s-0.714-0.331-1.137-0.331c-0.424 0-0.803 0.11-1.137 0.331s-0.602 0.524-0.803 0.911c-0.189 0.375-0.284 0.806-0.284 1.291s0.095 0.922 0.284 1.308c0.201 0.375 0.468 0.673 0.803 0.894s0.714 0.331 1.137 0.331z"></path>
<path fill="#002248" style="fill: var(--color16, #002248)" d="M36.666 20.622c-0.699 0-1.358-0.1-1.98-0.301-0.61-0.201-1.17-0.485-1.68-0.852-0.499-0.379-0.932-0.824-1.298-1.337-0.355-0.512-0.632-1.081-0.832-1.704-0.2-0.635-0.299-1.315-0.299-2.039s0.1-1.404 0.299-2.039c0.2-0.635 0.482-1.214 0.848-1.738s0.804-0.969 1.314-1.337c0.51-0.379 1.070-0.668 1.68-0.869 0.621-0.212 1.281-0.318 1.98-0.318 0.787 0 1.519 0.128 2.196 0.384s1.27 0.624 1.78 1.103c0.521 0.479 0.926 1.058 1.214 1.738l-2.395 0.735c-0.299-0.535-0.688-0.947-1.164-1.237-0.466-0.29-1.009-0.434-1.63-0.434-0.51 0-0.981 0.1-1.414 0.301-0.432 0.189-0.81 0.468-1.131 0.835-0.322 0.356-0.571 0.774-0.749 1.253s-0.266 1.003-0.266 1.571c0 0.579 0.089 1.114 0.266 1.604s0.427 0.913 0.749 1.27c0.333 0.356 0.721 0.635 1.164 0.835 0.444 0.189 0.932 0.284 1.464 0.284 0.566 0 1.070-0.106 1.514-0.317s0.804-0.507 1.081-0.886c0.277-0.379 0.449-0.824 0.516-1.337h-2.944v-2.055h5.49v1.253c0 0.824-0.144 1.582-0.433 2.273-0.277 0.691-0.671 1.287-1.181 1.788s-1.12 0.891-1.83 1.17c-0.71 0.267-1.486 0.401-2.329 0.401z"></path>
<path fill="#002248" style="fill: var(--color16, #002248)" d="M48.341 20.539c-0.654 0-1.259-0.117-1.813-0.351s-1.037-0.557-1.447-0.969c-0.41-0.423-0.732-0.919-0.965-1.487-0.222-0.568-0.333-1.186-0.333-1.855s0.116-1.281 0.349-1.838c0.233-0.568 0.554-1.064 0.965-1.487 0.421-0.423 0.909-0.752 1.464-0.986 0.566-0.234 1.181-0.351 1.846-0.351 0.654 0 1.259 0.117 1.813 0.351s1.037 0.563 1.447 0.986c0.41 0.412 0.726 0.902 0.948 1.47 0.233 0.557 0.349 1.17 0.349 1.838s-0.116 1.287-0.349 1.855c-0.233 0.568-0.56 1.064-0.981 1.487-0.41 0.423-0.898 0.752-1.464 0.986-0.555 0.234-1.164 0.351-1.83 0.351zM48.374 18.433c0.421 0 0.798-0.111 1.131-0.334s0.593-0.524 0.782-0.902c0.2-0.39 0.299-0.83 0.299-1.32s-0.1-0.925-0.299-1.303c-0.188-0.39-0.449-0.696-0.782-0.919s-0.71-0.334-1.131-0.334c-0.421 0-0.798 0.111-1.131 0.334s-0.599 0.529-0.798 0.919c-0.188 0.379-0.283 0.813-0.283 1.303s0.094 0.93 0.283 1.32c0.2 0.379 0.466 0.68 0.798 0.902s0.71 0.334 1.131 0.334z"></path>
<path fill="#002248" style="fill: var(--color16, #002248)" d="M57.207 20.539c-0.455 0-0.871-0.067-1.248-0.201s-0.71-0.323-0.998-0.568c-0.277-0.256-0.493-0.551-0.649-0.886s-0.233-0.702-0.233-1.103c0-0.557 0.15-1.047 0.449-1.471s0.721-0.752 1.264-0.986c0.543-0.245 1.176-0.368 1.896-0.368 0.366 0 0.71 0.033 1.031 0.1 0.333 0.067 0.654 0.162 0.965 0.284v-0.518c0-0.501-0.144-0.908-0.432-1.22-0.277-0.312-0.66-0.468-1.148-0.468-0.366 0-0.699 0.095-0.998 0.284-0.299 0.178-0.51 0.434-0.632 0.769l-2.079-0.418c0.122-0.512 0.36-0.958 0.715-1.337 0.366-0.39 0.81-0.691 1.331-0.902s1.087-0.318 1.697-0.318c0.566 0 1.081 0.089 1.547 0.267s0.865 0.434 1.198 0.769c0.344 0.334 0.604 0.73 0.782 1.186 0.188 0.446 0.283 0.947 0.283 1.504v5.347h-2.079l-0.067-1.036c-0.233 0.379-0.571 0.691-1.015 0.936-0.444 0.234-0.97 0.351-1.58 0.351zM56.376 17.665c0 0.312 0.127 0.568 0.383 0.769s0.593 0.301 1.015 0.301c0.366 0 0.693-0.078 0.981-0.234s0.516-0.368 0.682-0.635c0.166-0.278 0.25-0.585 0.25-0.919v-0.084c-0.244-0.1-0.505-0.178-0.782-0.234-0.277-0.067-0.554-0.1-0.832-0.1-0.521 0-0.937 0.106-1.248 0.317-0.299 0.201-0.449 0.473-0.449 0.819z"></path>
<path fill="#002248" style="fill: var(--color16, #002248)" d="M63.804 20.288v-12.466h2.329v12.466h-2.329z"></path>
<path fill="#00b3a0" style="fill: var(--color13, #00b3a0)" d="M75.378 17.778c0 1.571-1.273 2.844-2.844 2.844s-2.844-1.273-2.844-2.844c0-1.571 1.273-2.844 2.844-2.844s2.844 1.274 2.844 2.844z"></path>
</symbol>
</defs>
</svg>
